<mxfile host="65bd71144e">
    <diagram id="pIJLN3aKvtxHKyMv3up4" name="第 1 页">
        <mxGraphModel dx="1647" dy="1089" grid="1" gridSize="10" guides="1" tooltips="1" connect="1" arrows="1" fold="1" page="1" pageScale="1" pageWidth="1169" pageHeight="827" math="0" shadow="0">
            <root>
                <mxCell id="0"/>
                <mxCell id="1" parent="0"/>
                <mxCell id="4" style="edgeStyle=none;html=1;exitX=1;exitY=0.5;exitDx=0;exitDy=0;entryX=0;entryY=0.5;entryDx=0;entryDy=0;fontSize=24;strokeWidth=3;" edge="1" parent="1" source="2" target="3">
                    <mxGeometry relative="1" as="geometry"/>
                </mxCell>
                <mxCell id="2" value="&lt;font style=&quot;font-size: 24px;&quot;&gt;开始&lt;/font&gt;" style="rounded=1;whiteSpace=wrap;html=1;" vertex="1" parent="1">
                    <mxGeometry x="20" y="310" width="110" height="90" as="geometry"/>
                </mxCell>
                <mxCell id="3" value="账户是否有&lt;br&gt;开发者权限？" style="rhombus;whiteSpace=wrap;html=1;fontSize=24;" vertex="1" parent="1">
                    <mxGeometry x="170" y="285" width="220" height="140" as="geometry"/>
                </mxCell>
                <mxCell id="5" value="" style="endArrow=classic;html=1;fontSize=24;exitX=1;exitY=0.5;exitDx=0;exitDy=0;entryX=0;entryY=0.5;entryDx=0;entryDy=0;strokeWidth=3;" edge="1" parent="1" source="3" target="7">
                    <mxGeometry relative="1" as="geometry">
                        <mxPoint x="760" y="360" as="sourcePoint"/>
                        <mxPoint x="770" y="355" as="targetPoint"/>
                    </mxGeometry>
                </mxCell>
                <mxCell id="6" value="是" style="edgeLabel;resizable=0;html=1;align=center;verticalAlign=middle;fontSize=24;" connectable="0" vertex="1" parent="5">
                    <mxGeometry relative="1" as="geometry"/>
                </mxCell>
                <mxCell id="11" style="edgeStyle=none;html=1;exitX=0.5;exitY=1;exitDx=0;exitDy=0;entryX=0.5;entryY=0;entryDx=0;entryDy=0;fontSize=24;strokeWidth=3;" edge="1" parent="1" source="7" target="9">
                    <mxGeometry relative="1" as="geometry"/>
                </mxCell>
                <mxCell id="7" value="允许提交应用" style="rounded=0;whiteSpace=wrap;html=1;fontSize=24;" vertex="1" parent="1">
                    <mxGeometry x="470" y="320" width="200" height="70" as="geometry"/>
                </mxCell>
                <mxCell id="12" style="edgeStyle=none;html=1;exitX=0.5;exitY=1;exitDx=0;exitDy=0;entryX=0.5;entryY=0;entryDx=0;entryDy=0;fontSize=24;strokeWidth=3;" edge="1" parent="1" source="9" target="10">
                    <mxGeometry relative="1" as="geometry"/>
                </mxCell>
                <mxCell id="9" value="提交并人工审核" style="rounded=0;whiteSpace=wrap;html=1;fontSize=24;" vertex="1" parent="1">
                    <mxGeometry x="470" y="440" width="200" height="70" as="geometry"/>
                </mxCell>
                <mxCell id="10" value="审核是否通过？" style="rhombus;whiteSpace=wrap;html=1;fontSize=24;" vertex="1" parent="1">
                    <mxGeometry x="470" y="550" width="200" height="80" as="geometry"/>
                </mxCell>
                <mxCell id="13" value="" style="endArrow=classic;html=1;fontSize=24;exitX=0.5;exitY=1;exitDx=0;exitDy=0;entryX=0.5;entryY=0;entryDx=0;entryDy=0;strokeWidth=3;" edge="1" parent="1" source="3" target="15">
                    <mxGeometry relative="1" as="geometry">
                        <mxPoint x="250" y="570" as="sourcePoint"/>
                        <mxPoint x="280" y="570" as="targetPoint"/>
                    </mxGeometry>
                </mxCell>
                <mxCell id="14" value="否" style="edgeLabel;resizable=0;html=1;align=center;verticalAlign=middle;fontSize=24;" connectable="0" vertex="1" parent="13">
                    <mxGeometry relative="1" as="geometry"/>
                </mxCell>
                <mxCell id="15" value="&lt;font style=&quot;font-size: 24px;&quot;&gt;结束&lt;/font&gt;" style="rounded=1;whiteSpace=wrap;html=1;" vertex="1" parent="1">
                    <mxGeometry x="225" y="480" width="110" height="90" as="geometry"/>
                </mxCell>
                <mxCell id="16" value="" style="endArrow=classic;html=1;fontSize=24;exitX=0.5;exitY=1;exitDx=0;exitDy=0;entryX=0.5;entryY=0;entryDx=0;entryDy=0;strokeWidth=3;" edge="1" parent="1" source="10" target="19">
                    <mxGeometry relative="1" as="geometry">
                        <mxPoint x="580" y="700" as="sourcePoint"/>
                        <mxPoint x="570" y="710" as="targetPoint"/>
                    </mxGeometry>
                </mxCell>
                <mxCell id="17" value="是" style="edgeLabel;resizable=0;html=1;align=center;verticalAlign=middle;fontSize=24;" connectable="0" vertex="1" parent="16">
                    <mxGeometry relative="1" as="geometry"/>
                </mxCell>
                <mxCell id="22" style="edgeStyle=none;html=1;exitX=0;exitY=0.5;exitDx=0;exitDy=0;entryX=0.5;entryY=1;entryDx=0;entryDy=0;fontSize=24;strokeWidth=3;" edge="1" parent="1" source="19" target="15">
                    <mxGeometry relative="1" as="geometry">
                        <Array as="points">
                            <mxPoint x="280" y="725"/>
                        </Array>
                    </mxGeometry>
                </mxCell>
                <mxCell id="19" value="允许上架&lt;br&gt;第三方商店" style="rounded=0;whiteSpace=wrap;html=1;fontSize=24;" vertex="1" parent="1">
                    <mxGeometry x="470" y="690" width="200" height="70" as="geometry"/>
                </mxCell>
                <mxCell id="23" value="" style="endArrow=classic;html=1;fontSize=24;exitX=0;exitY=0.5;exitDx=0;exitDy=0;entryX=1;entryY=0.5;entryDx=0;entryDy=0;strokeWidth=3;" edge="1" parent="1" source="10" target="15">
                    <mxGeometry relative="1" as="geometry">
                        <mxPoint x="370" y="620" as="sourcePoint"/>
                        <mxPoint x="470" y="620" as="targetPoint"/>
                    </mxGeometry>
                </mxCell>
                <mxCell id="24" value="否" style="edgeLabel;resizable=0;html=1;align=center;verticalAlign=middle;fontSize=24;" connectable="0" vertex="1" parent="23">
                    <mxGeometry relative="1" as="geometry"/>
                </mxCell>
            </root>
        </mxGraphModel>
    </diagram>
</mxfile>